<svg xmlns="http://www.w3.org/2000/svg" viewBox="0 0 200 200">
  <circle cx="100" cy="100" r="95" fill="#1e90ff" stroke="#e0e0e0" stroke-width="3"/>
  <ellipse cx="100" cy="100" rx="40" ry="95" fill="none" stroke="#e0e0e0" stroke-width="2"/>
  <ellipse cx="100" cy="100" rx="70" ry="95" fill="none" stroke="#e0e0e0" stroke-width="1.5"/>
  <line x1="5" y1="100" x2="195" y2="100" stroke="#e0e0e0" stroke-width="2"/>
  <line x1="100" y1="5" x2="100" y2="195" stroke="#e0e0e0" stroke-width="2"/>
  <ellipse cx="100" cy="60" rx="82" ry="0" fill="none" stroke="#e0e0e0" stroke-width="1.5"/>
  <path d="M 18,60 Q 100,75 182,60" fill="none" stroke="#e0e0e0" stroke-width="1.5"/>
  <path d="M 18,140 Q 100,125 182,140" fill="none" stroke="#e0e0e0" stroke-width="1.5"/>
  <path d="M 30,45 Q 60,55 80,40 Q 100,50 90,70 Q 75,80 60,65 Z" fill="#2e8b57"/>
  <path d="M 110,30 Q 140,25 155,45 Q 160,60 140,65 Q 120,55 110,40 Z" fill="#2e8b57"/>
  <path d="M 55,95 Q 80,85 110,95 Q 130,110 120,130 Q 100,140 70,125 Q 50,110 55,95 Z" fill="#2e8b57"/>
  <path d="M 135,100 Q 155,90 170,105 Q 165,120 145,115 Z" fill="#2e8b57"/>
</svg>
